<svg width="86" height="14" viewBox="0 0 86 14" fill="none" xmlns="http://www.w3.org/2000/svg">
<path d="M39.0013 0L39.549 1.24865L33.8887 14H36.7737L36.9928 12.4865L37.6136 11.0865H43.9677L44.552 12.4865L44.7711 14H48.0577L41.8497 0H39.0013ZM38.3074 9.00541L40.7906 3.51892L43.2739 9.00541H38.3074Z" fill="#414042"/>
<path d="M79.7554 0H76.9435L77.4913 1.24865L71.7945 14H74.6794L74.8985 12.4865L75.5193 11.0865H81.8735L82.4943 12.4865L82.7134 14H86L79.7554 0ZM76.2132 9.00541L78.6964 3.51892L81.1796 9.00541H76.2132Z" fill="#414042"/>
<path d="M5.11253 0L5.6603 1.24865L0 14H2.88493L3.10403 12.4865L3.72484 11.0865H10.079L10.6998 12.4865L10.9189 14H14.2055L7.99745 0H5.11253ZM4.41868 9.00541L6.90191 3.51892L9.38514 9.00541H4.41868Z" fill="#414042"/>
<path d="M30.8212 0H27.6076L27.1329 1.4L23.9923 6.43243L20.7788 1.4L20.3405 0H17.127L22.7507 8.74054L22.4951 14H25.4531L25.1974 8.74054H25.234L30.8212 0Z" fill="#414042"/>
<path d="M66.4263 0H64.0161H63.7605L64.0161 1.51351V11.8432L57.3699 0H53.1703L53.7181 1.24865V12.4865L53.4989 14H56.3839L56.1282 12.4865V2.72432L62.4824 14H66.4263V1.51351L66.682 0H66.4263Z" fill="#414042"/>
</svg>
