<svg width="41" height="33" viewBox="0 0 41 33" fill="none" xmlns="http://www.w3.org/2000/svg">
<g clip-path="url(#clip0_56_291)">
<path fill-rule="evenodd" clip-rule="evenodd" d="M7.47486 1.40398C7.47486 1.00398 7.77486 0.703979 8.17486 0.703979C8.47486 0.703979 8.77486 1.00398 8.87486 1.40398V8.30398C8.87486 9.40398 8.17486 10.304 7.17486 10.604H7.07486V29.704C7.07486 31.004 5.97486 32.104 4.67486 32.104C3.37486 32.104 2.27486 31.004 2.27486 29.704V10.604H2.17486C1.27486 10.204 0.57486 9.30398 0.57486 8.30398V1.40398C0.57486 1.00398 0.87486 0.703979 1.27486 0.703979C1.67486 0.703979 1.97486 1.00398 1.97486 1.40398V8.30398C1.97486 8.90398 2.47486 9.30398 2.97486 9.30398H3.97486V1.40398C3.97486 1.00398 4.27486 0.703979 4.67486 0.703979C5.07486 0.703979 5.37486 1.00398 5.37486 1.40398V9.30398H6.47486C6.97486 9.30398 7.47486 8.90398 7.47486 8.30398V1.40398ZM4.77486 30.704C5.27486 30.704 5.77486 30.304 5.77486 29.704H5.87486V10.704H3.77486V29.704C3.77486 30.204 4.27486 30.704 4.77486 30.704ZM34.7751 5.60398C34.7751 2.90398 36.9751 0.703979 39.6751 0.703979C40.0751 0.703979 40.3751 1.00398 40.3751 1.40398V29.704C40.3751 31.004 39.2751 32.104 37.9751 32.104C36.6751 32.104 35.5751 31.004 35.5751 29.704V20.204H35.4751C35.0751 20.204 34.7751 19.904 34.7751 19.504V5.60398ZM37.9751 30.704C38.4751 30.704 38.9751 30.304 38.9751 29.704H39.0751V20.204H36.9751V29.704C36.9751 30.204 37.3751 30.704 37.9751 30.704ZM36.0751 18.804H38.8751V2.20398H38.7751C37.1751 2.50398 36.0751 4.00398 36.0751 5.60398V18.804ZM8.87466 16.404C8.87466 9.70399 14.2747 4.30399 20.9747 4.30399C27.5747 4.30399 33.0747 9.70399 33.0747 16.404C33.0747 23.104 27.6747 28.504 20.9747 28.504C14.2747 28.504 8.87466 23.104 8.87466 16.404ZM10.2747 16.404C10.2747 22.304 15.0747 27.104 20.9747 27.104C26.8747 27.104 31.6747 22.304 31.6747 16.404C31.6747 10.504 26.8747 5.70399 20.9747 5.70399C15.0747 5.70399 10.1747 10.504 10.2747 16.404ZM20.9751 7.70398C16.1751 7.70398 12.2751 11.604 12.2751 16.404C12.2751 21.204 16.1751 25.104 20.9751 25.104C25.7751 25.104 29.6751 21.204 29.6751 16.404C29.5751 11.604 25.6751 7.70398 20.9751 7.70398ZM20.9751 23.804C16.8751 23.804 13.5751 20.504 13.5751 16.404C13.5751 12.304 16.8751 9.00398 20.9751 9.00398C25.0751 9.00398 28.3751 12.304 28.3751 16.404C28.3751 20.504 25.0751 23.804 20.9751 23.804Z" fill="#231F20"/>
</g>
<defs>
<clipPath id="clip0_56_291">
<rect width="39.8" height="31.4" fill="white" transform="translate(0.57486 0.703979)"/>
</clipPath>
</defs>
</svg>
