<svg width="41" height="41" viewBox="0 0 41 41" fill="none" xmlns="http://www.w3.org/2000/svg">
<g clip-path="url(#clip0_56_306)">
<path d="M27.7275 18.704C28.0032 18.7774 28.295 18.763 28.5621 18.6626C28.8293 18.5622 29.0584 18.3809 29.2175 18.144L29.9675 17.024L30.0575 18.374C30.0781 18.6556 30.1853 18.924 30.3643 19.1423C30.5433 19.3607 30.7854 19.5185 31.0575 19.594L36.8475 21.144C37.1223 21.2155 37.4124 21.2011 37.6788 21.1027C37.9451 21.0044 38.175 20.8269 38.3375 20.594L40.0375 18.044C40.1074 17.9485 40.1426 17.8321 40.1375 17.714C40.1582 15.0289 39.4682 12.3862 38.1375 10.054C38.0775 9.93397 38.0075 9.82397 37.9375 9.70397L37.6275 9.20397C37.5175 9.03397 37.4075 8.86397 37.2875 8.70397L36.9075 8.19397C36.3448 7.46994 35.7154 6.80033 35.0275 6.19397C35.0305 6.16739 35.0305 6.14055 35.0275 6.11397L34.7875 5.92397L34.4375 5.60397C34.2775 5.47397 34.1075 5.35397 33.9375 5.23397L33.8275 5.15397C32.5756 4.26041 31.197 3.55931 29.7375 3.07397L30.3075 1.48397C30.3378 1.40998 30.3527 1.3306 30.3514 1.25065C30.35 1.17071 30.3325 1.09186 30.2997 1.01892C30.267 0.945968 30.2198 0.880434 30.161 0.826294C30.1021 0.772154 30.0329 0.730538 29.9575 0.703973C29.8847 0.677213 29.8072 0.665329 29.7298 0.669024C29.6523 0.672718 29.5763 0.691916 29.5064 0.725482C29.4365 0.759048 29.374 0.806299 29.3226 0.86444C29.2713 0.922581 29.2321 0.99043 29.2075 1.06397L28.6175 2.70397C25.3731 1.91077 21.958 2.20531 18.8974 3.54231C15.8368 4.8793 13.3001 7.1847 11.6775 10.104C11.6171 10.2066 11.5892 10.3252 11.5975 10.444L11.7975 13.444C11.8147 13.7278 11.9204 13.9991 12.0997 14.2197C12.2791 14.4404 12.5231 14.5992 12.7975 14.674L18.5775 16.224C18.8519 16.3061 19.1452 16.3 19.4161 16.2068C19.6869 16.1135 19.9217 15.9376 20.0875 15.704L20.8375 14.584L20.9275 15.934C20.9475 16.2169 21.0543 16.4868 21.2332 16.7069C21.4122 16.927 21.6546 17.0866 21.9275 17.164L24.2575 17.784L20.9875 30.024H15.8775H8.27748C7.75369 30.0186 7.23416 30.1185 6.74974 30.3177C6.26531 30.517 5.82586 30.8116 5.45748 31.184C5.03645 31.6627 4.71521 32.2206 4.51258 32.825C4.30996 33.4294 4.23003 34.0682 4.27748 34.704C4.27748 34.9214 4.36387 35.13 4.51765 35.2838C4.67143 35.4376 4.88 35.524 5.09748 35.524H6.53748L5.29748 38.214C5.10885 38.63 5.08737 39.1026 5.23748 39.534H2.12748C2.05047 39.5326 1.97397 39.5467 1.90245 39.5752C1.83092 39.6038 1.7658 39.6463 1.71087 39.7003C1.65595 39.7543 1.61233 39.8187 1.58256 39.8897C1.55279 39.9607 1.53746 40.037 1.53748 40.114C1.53748 40.2705 1.59964 40.4205 1.71028 40.5312C1.82093 40.6418 1.971 40.704 2.12748 40.704H38.1775C38.334 40.704 38.484 40.6418 38.5947 40.5312C38.7053 40.4205 38.7675 40.2705 38.7675 40.114C38.7675 40.037 38.7522 39.9607 38.7224 39.8897C38.6926 39.8187 38.649 39.7543 38.5941 39.7003C38.5392 39.6463 38.474 39.6038 38.4025 39.5752C38.331 39.5467 38.2545 39.5326 38.1775 39.534H32.6775C32.8307 39.1038 32.8128 38.6313 32.6275 38.214L30.7675 34.134L38.4475 26.394C38.5443 26.2944 38.6143 26.1718 38.6508 26.0378C38.6872 25.9037 38.6891 25.7626 38.6561 25.6276C38.6231 25.4927 38.5564 25.3683 38.4622 25.2662C38.368 25.1642 38.2493 25.0877 38.1175 25.044L36.3275 24.444C35.549 24.1863 34.7138 24.1518 33.9167 24.3445C33.1196 24.5371 32.3924 24.9492 31.8175 25.534L27.6875 29.704C27.5028 29.8924 27.2512 30.0002 26.9875 30.004H22.2075L25.3975 18.074L27.7275 18.704ZM31.5375 8.56397C31.4891 7.34213 31.3756 6.12373 31.1975 4.91397C31.8083 5.20296 32.3966 5.53722 32.9575 5.91397C33.1639 6.04347 33.361 6.18715 33.5475 6.34397L33.6375 6.40397L34.1975 6.88397L34.2675 6.94397C34.9682 7.57203 35.6077 8.26513 36.1775 9.01397C36.477 9.39324 36.7477 9.79435 36.9875 10.214C37.1175 10.414 37.2375 10.624 37.3575 10.834C38.3593 12.7179 38.9265 14.8022 39.0175 16.934L31.1475 14.824C31.4745 12.7543 31.6051 10.6583 31.5375 8.56397ZM38.6675 18.094L37.4175 19.954C37.3955 19.9879 37.3633 20.014 37.3256 20.0283C37.2878 20.0427 37.2464 20.0447 37.2075 20.034L31.4275 18.484C31.3882 18.4741 31.3528 18.4526 31.3261 18.4223C31.2993 18.3919 31.2823 18.3542 31.2775 18.314L31.1275 16.074L38.6675 18.094ZM6.89748 39.534C6.81371 39.5344 6.73119 39.5138 6.65748 39.474C6.58681 39.4437 6.52299 39.3995 6.46985 39.344C6.41671 39.2885 6.37535 39.2227 6.34826 39.1508C6.32117 39.0789 6.30891 39.0022 6.31221 38.9254C6.31551 38.8486 6.33431 38.7733 6.36748 38.704L7.79748 35.554H9.08748L7.42748 39.184C7.38274 39.2875 7.30878 39.3758 7.21464 39.438C7.12051 39.5001 7.01028 39.5335 6.89748 39.534ZM18.4475 39.534H8.53748L10.3475 35.534H19.5375L18.4475 39.534ZM19.6575 39.534L20.7275 35.534H27.5375L29.3475 39.534H19.6575ZM31.5375 38.704C31.5989 38.8448 31.603 39.0041 31.5488 39.1479C31.4947 39.2917 31.3866 39.4087 31.2475 39.474C31.1733 39.5126 31.0911 39.5332 31.0075 39.534C30.8938 39.5318 30.783 39.4978 30.6876 39.436C30.5922 39.3741 30.5159 39.2868 30.4675 39.184L28.7775 35.474C29.163 35.3829 29.5267 35.2163 29.8475 34.984L31.5375 38.704ZM26.9575 31.214C27.2509 31.2165 27.5418 31.1602 27.8131 31.0486C28.0845 30.937 28.3308 30.7722 28.5375 30.564L32.6575 26.354C33.0812 25.9275 33.615 25.627 34.1993 25.4858C34.7837 25.3445 35.3957 25.3681 35.9675 25.554L37.2175 25.974L29.3875 33.864C29.2253 34.0281 29.0322 34.1586 28.8194 34.2478C28.6066 34.3371 28.3782 34.3833 28.1475 34.384H5.45748C5.4106 33.9483 5.45972 33.5077 5.60138 33.0931C5.74305 32.6784 5.97382 32.2999 6.27748 31.984C6.54053 31.7225 6.8526 31.5154 7.19579 31.3747C7.53898 31.234 7.90656 31.1624 8.27748 31.164H15.5375L26.9575 31.214ZM29.8575 4.36397C30.099 5.76585 30.246 7.18238 30.2975 8.60397C30.3685 10.6105 30.2514 12.6193 29.9475 14.604L22.0575 12.484C23.2836 9.1996 25.1845 6.20866 27.6375 3.70397C28.4017 3.85934 29.1511 4.08016 29.8775 4.36397H29.8575ZM19.1175 15.064C19.0939 15.0987 19.0599 15.1252 19.0204 15.1395C18.9809 15.1539 18.9379 15.1554 18.8975 15.144L13.1175 13.594C13.0767 13.5836 13.0403 13.5606 13.0134 13.5282C12.9864 13.4959 12.9704 13.4559 12.9675 13.414L12.8175 11.184L20.3675 13.184L19.1175 15.064ZM20.9375 12.144L13.0775 10.034C14.4583 7.8489 16.4137 6.08578 18.7295 4.93758C21.0453 3.78937 23.6323 3.30033 26.2075 3.52397C25.2996 4.52063 24.4673 5.58358 23.7175 6.70397C22.5873 8.4059 21.6546 10.231 20.9375 12.144ZM22.2475 16.044C22.2086 16.0302 22.1742 16.0062 22.1478 15.9745C22.1214 15.9428 22.1041 15.9047 22.0975 15.864L21.9475 13.624L29.4975 15.624L28.2475 17.494C28.2229 17.5276 28.1888 17.5532 28.1497 17.5675C28.1105 17.5817 28.0679 17.584 28.0275 17.574L22.2475 16.044Z" fill="black"/>
</g>
<defs>
<clipPath id="clip0_56_306">
<rect width="38.61" height="40" fill="white" transform="translate(1.53748 0.703979)"/>
</clipPath>
</defs>
</svg>
