<svg width="25" height="24" viewBox="0 0 25 24" fill="none" xmlns="http://www.w3.org/2000/svg">
<path d="M16.8805 14.4308L16.8806 14.4308C17.9218 12.77 18.425 11.3624 18.425 10.2C18.425 8.34653 17.8377 6.84987 16.6721 5.69193L16.8805 14.4308ZM16.8805 14.4308C15.8662 16.0492 14.3664 17.7499 12.375 19.5321C10.3836 17.7499 8.88381 16.0492 7.86947 14.4308L7.86945 14.4308M16.8805 14.4308L7.86945 14.4308M7.86945 14.4308C6.82815 12.77 6.325 11.3624 6.325 10.2C6.325 8.34653 6.91227 6.84987 8.07791 5.69193L7.86945 14.4308ZM13.7543 11.3796L13.7546 11.3793C14.1333 10.9998 14.325 10.5363 14.325 10C14.325 9.46371 14.1333 9.00023 13.7546 8.62072L13.7543 8.62044C13.3748 8.24167 12.9113 8.05 12.375 8.05C11.8387 8.05 11.3752 8.24167 10.9957 8.62044L10.9954 8.62072C10.6167 9.00023 10.425 9.46371 10.425 10C10.425 10.5363 10.6167 10.9998 10.9954 11.3793L10.9957 11.3796C11.3752 11.7583 11.8387 11.95 12.375 11.95C12.9113 11.95 13.3748 11.7583 13.7543 11.3796ZM12.2436 21.9508L12.375 22.0653L12.5064 21.9508C15.114 19.6775 17.0699 17.5642 18.3666 15.6106C19.6624 13.6585 20.325 11.8534 20.325 10.2C20.325 7.7361 19.5286 5.75048 17.9239 4.26522L17.9238 4.26516C16.3296 2.79099 14.4773 2.05 12.375 2.05C10.2727 2.05 8.4207 2.79099 6.82718 4.26519L6.82718 4.26519C5.22176 5.75044 4.425 7.73607 4.425 10.2C4.425 11.8534 5.08758 13.6585 6.38337 15.6106C7.68013 17.5642 9.63596 19.6775 12.2436 21.9508ZM12.375 3.95C14.0738 3.95 15.502 4.53024 16.672 5.69189H8.07795C9.24801 4.53024 10.6762 3.95 12.375 3.95Z" fill="#1C1B1F" stroke="#1C1B1F" stroke-width="0.4"/>
</svg>
